<svg width="24" height="24" viewBox="0 0 24 24" fill="none" xmlns="http://www.w3.org/2000/svg">
<path d="M12 21C16.9705 21 21 16.9705 21 12C21 7.02945 16.9705 3 12 3C7.02945 3 3 7.02945 3 12C3 16.9705 7.02945 21 12 21Z" fill="url(#paint0_linear)"/>
<path d="M12 18.9994C15.8657 18.9994 18.9994 15.8657 18.9994 12C18.9994 8.13435 15.8657 5.00063 12 5.00063C8.13435 5.00063 5.00063 8.13435 5.00063 12C5.00063 15.8657 8.13435 18.9994 12 18.9994Z" fill="#0078D7"/>
<path d="M12 18.9994C15.8657 18.9994 18.9994 15.8657 18.9994 12C18.9994 8.13435 15.8657 5.00063 12 5.00063C8.13435 5.00063 5.00063 8.13435 5.00063 12C5.00063 15.8657 8.13435 18.9994 12 18.9994Z" fill="url(#paint1_radial)"/>
<path d="M12 13.9688C13.0873 13.9688 13.9688 13.0873 13.9688 12C13.9688 10.9127 13.0873 10.0312 12 10.0312C10.9127 10.0312 10.0312 10.9127 10.0312 12C10.0312 13.0873 10.9127 13.9688 12 13.9688Z" fill="#50E6FF"/>
<path d="M12 13.9688C13.0873 13.9688 13.9688 13.0873 13.9688 12C13.9688 10.9127 13.0873 10.0312 12 10.0312C10.9127 10.0312 10.0312 10.9127 10.0312 12C10.0312 13.0873 10.9127 13.9688 12 13.9688Z" fill="#50E6FF"/>
<path d="M12 7.4775C11.4074 7.47675 10.8205 7.59338 10.2731 7.82063L9.98813 7.125C10.6259 6.86055 11.3097 6.72548 12 6.7275C13.0433 6.72638 14.0633 7.03493 14.931 7.61415C15.7987 8.19338 16.4749 9.0171 16.8739 9.98108C17.2729 10.945 17.3768 12.0056 17.1724 13.0286C16.9679 14.0516 16.4645 14.9909 15.7256 15.7275L15.1969 15.1987C15.8305 14.5667 16.2623 13.7609 16.4375 12.8832C16.6127 12.0056 16.5236 11.0957 16.1812 10.2688C15.8388 9.4419 15.2587 8.73525 14.5144 8.2383C13.77 7.74143 12.895 7.4766 12 7.4775Z" fill="#50E6FF"/>
<path d="M7.96873 9.95055C7.53516 10.8016 7.38238 11.768 7.53231 12.7112C7.68216 13.6545 8.12706 14.5259 8.80311 15.2006L8.27436 15.7293C7.48611 14.9432 6.96808 13.927 6.79521 12.8272C6.62233 11.7275 6.80346 10.6013 7.31248 9.61118L7.96873 9.95055Z" fill="#50E6FF"/>
<path fill-rule="evenodd" clip-rule="evenodd" d="M15.0431 7.89571L16.3894 6.55133C16.7796 6.86596 17.1353 7.22101 17.4506 7.61071L12.5625 12.5045L11.4956 11.4376L15.0431 7.89571Z" fill="#50E6FF"/>
<path d="M12 12.75C12.4142 12.75 12.75 12.4142 12.75 12C12.75 11.5858 12.4142 11.25 12 11.25C11.5858 11.25 11.25 11.5858 11.25 12C11.25 12.4142 11.5858 12.75 12 12.75Z" fill="#005BA1"/>
<path d="M12 12.75C12.4142 12.75 12.75 12.4142 12.75 12C12.75 11.5858 12.4142 11.25 12 11.25C11.5858 11.25 11.25 11.5858 11.25 12C11.25 12.4142 11.5858 12.75 12 12.75Z" fill="#005BA1"/>
<path d="M15.1575 7.78125C15.56 8.0826 15.9174 8.4399 16.2188 8.8425L15.6825 9.375C15.3903 8.967 15.033 8.6097 14.625 8.3175L15.045 7.89563L15.1575 7.78125Z" fill="#C3F1FF"/>
<defs>
<linearGradient id="paint0_linear" x1="12" y1="21" x2="12" y2="3" gradientUnits="userSpaceOnUse">
<stop stop-color="#A7A9AC"/>
<stop offset="0.3" stop-color="#ABADB0"/>
<stop offset="0.62" stop-color="#B8BABC"/>
<stop offset="0.95" stop-color="#CDCFD1"/>
<stop offset="1" stop-color="#D1D3D4"/>
</linearGradient>
<radialGradient id="paint1_radial" cx="0" cy="0" r="1" gradientUnits="userSpaceOnUse" gradientTransform="translate(12 12) scale(6.99938)">
<stop stop-color="#0078D4"/>
<stop offset="0.26" stop-color="#0075CE"/>
<stop offset="0.59" stop-color="#006CBE"/>
<stop offset="0.97" stop-color="#005CA4"/>
<stop offset="1" stop-color="#005BA1"/>
</radialGradient>
</defs>
</svg>
