<svg width="24" height="24" viewBox="0 0 24 24" fill="none" xmlns="http://www.w3.org/2000/svg">
<g clip-path="url(#clip0)">
<path d="M19.464 12.12V7.76399L14.532 12.048H14.424V7.76399L9.492 12.048V3.08399C9.492 2.32799 7.8 1.57199 5.568 1.57199C3.336 1.57199 1.5 2.29199 1.5 3.08399V19.5H17.7V16.2375H19.464V12.12ZM5.568 3.80399C3.948 3.80399 2.652 3.40799 2.652 2.97599C2.652 2.54399 3.948 2.14799 5.568 2.14799C7.188 2.14799 8.484 2.50799 8.484 2.97599C8.448 3.40799 7.152 3.80399 5.568 3.80399ZM14.064 16.584H12.084V14.604H14.064V16.584ZM10.572 16.584H8.592V14.604H10.572V16.584ZM15.612 16.584V14.604H17.592V16.584H15.612Z" fill="#59B4D9"/>
<path d="M5.496 2.97601H1.5V19.5H5.496V2.97601Z" fill="#3999C6"/>
<path d="M9.456 2.97601C9.456 3.76801 7.656 4.41601 5.46 4.41601C3.264 4.41601 1.5 3.76801 1.5 2.97601C1.5 2.18401 3.3 1.53601 5.496 1.53601C7.692 1.53601 9.456 2.14801 9.456 2.97601Z" fill="white"/>
<path d="M8.664 2.86801C8.664 3.40801 7.26 3.80401 5.496 3.80401C3.732 3.80401 2.328 3.40801 2.328 2.86801C2.328 2.32801 3.732 1.93201 5.496 1.93201C7.26 1.93201 8.664 2.36401 8.664 2.86801Z" fill="#7FBA00"/>
<path d="M7.98 3.44401C8.412 3.30001 8.628 3.08401 8.628 2.86801C8.628 2.32801 7.224 1.93201 5.46 1.93201C3.696 1.93201 2.292 2.36401 2.292 2.86801C2.328 3.08401 2.58 3.30001 2.976 3.44401C3.552 3.22801 4.452 3.08401 5.496 3.08401C6.504 3.08401 7.404 3.22801 7.98 3.44401Z" fill="#B8D432"/>
</g>
<g clip-path="url(#clip1)">
<path d="M23.0625 16.4062H22.5938V21.7969C22.5938 21.8945 22.5755 21.9861 22.5389 22.0716C22.5023 22.157 22.4523 22.2315 22.3887 22.2949C22.3251 22.3584 22.2506 22.4084 22.1653 22.4452C22.08 22.4819 21.9884 22.5002 21.8906 22.5H18.1406C18.043 22.5 17.9514 22.4817 17.8659 22.4452C17.7805 22.4086 17.706 22.3585 17.6426 22.2949C17.5791 22.2313 17.5291 22.1569 17.4923 22.0716C17.4556 21.9863 17.4373 21.8947 17.4375 21.7969V16.4062H16.9688V15.9375H18.8438V15.4687C18.8438 15.4028 18.8559 15.3418 18.8803 15.2857C18.9047 15.2296 18.9383 15.1802 18.9811 15.1373C19.0239 15.0945 19.0734 15.0609 19.1295 15.0366C19.1855 15.0122 19.2466 15 19.3125 15H20.7188C20.7847 15 20.8457 15.0122 20.9018 15.0366C20.9579 15.0609 21.0073 15.0945 21.0502 15.1373C21.093 15.1802 21.1266 15.2296 21.1509 15.2857C21.1753 15.3418 21.1875 15.4028 21.1875 15.4687V15.9375H23.0625V16.4062ZM19.3125 15.9375H20.7188V15.4687H19.3125V15.9375ZM22.125 16.4062H17.9063V21.7969C17.9063 21.8603 17.9295 21.9152 17.9759 21.9616C18.0223 22.008 18.0772 22.0312 18.1406 22.0312H21.8906C21.9541 22.0312 22.009 22.008 22.0554 21.9616C22.1018 21.9152 22.125 21.8603 22.125 21.7969V16.4062ZM19.3125 21.0937H18.8438V17.3437H19.3125V21.0937ZM20.25 21.0937H19.7813V17.3437H20.25V21.0937ZM21.1875 21.0937H20.7188V17.3437H21.1875V21.0937Z" fill="black"/>
</g>
<defs>
<clipPath id="clip0">
<rect width="18" height="18" fill="white" transform="translate(1.5 1.5)"/>
</clipPath>
<clipPath id="clip1">
<rect width="7.5" height="7.5" fill="white" transform="translate(16.5 15)"/>
</clipPath>
</defs>
</svg>
