<svg width="24" height="24" viewBox="0 0 24 24" fill="none" xmlns="http://www.w3.org/2000/svg">
<g clip-path="url(#clip0)">
<path d="M3.48947 2.54999C2.87053 2.63841 2.37158 3.18788 1.99263 4.19841C1.66421 5.09525 1.5 6.16262 1.5 7.40051C1.5 8.63841 1.66421 9.71209 1.99263 10.6216C2.37158 11.6195 2.87053 12.1626 3.48947 12.251H6.54C6.81789 12.2258 7.07368 12.1374 7.30737 11.9858C7.54105 11.8342 7.73368 11.6384 7.88526 11.3984H10.3484L10.4053 11.4931C10.5568 11.1647 10.7337 10.8489 10.9358 10.5458H8.35895C8.62421 9.52262 8.74737 8.47736 8.72842 7.40999C8.70947 6.34262 8.58632 5.29104 8.35895 4.25525H11.5042V3.40262H11.6937C11.8832 3.40262 12.0821 3.5763 12.2905 3.92367C12.4989 4.27104 12.6663 4.73525 12.7926 5.3163C12.9442 5.96051 13.02 6.65525 13.02 7.40051C13.02 7.74157 13.0011 8.10157 12.9632 8.48051C13.2284 8.30367 13.5 8.14578 13.7779 8.00683V7.85525C13.7905 7.65315 13.7905 7.50157 13.7779 7.40051C13.8284 5.99841 13.5442 4.66578 12.9253 3.40262H14.5358C14.7379 3.40262 14.94 3.57315 15.1421 3.9142C15.3442 4.25525 15.5147 4.7163 15.6537 5.29736C15.7926 5.92894 15.8684 6.61736 15.8811 7.36262C16.1589 7.32473 16.4432 7.29946 16.7337 7.28683C16.7211 6.47841 16.6326 5.72051 16.4684 5.01315C16.2916 4.26788 16.0453 3.68051 15.7295 3.25104C15.3884 2.78367 14.9905 2.54999 14.5358 2.54999H11.5042C11.1126 2.54999 10.7274 2.8342 10.3484 3.40262H7.88526C7.73368 3.16262 7.54105 2.96683 7.30737 2.81525C7.07368 2.66367 6.81789 2.57525 6.54 2.54999H3.48947V2.54999ZM3.69789 3.40262C3.88737 3.40262 4.08632 3.5763 4.29474 3.92367C4.50316 4.27104 4.67053 4.73525 4.79684 5.3163C4.94842 5.96051 5.02421 6.65841 5.02421 7.40999C5.02421 8.16157 4.94842 8.85946 4.79684 9.50367C4.67053 10.0847 4.50316 10.5458 4.29474 10.8868C4.08632 11.2279 3.88421 11.3984 3.68842 11.3984C3.49263 11.3984 3.29053 11.2279 3.08211 10.8868C2.87368 10.5458 2.70632 10.0847 2.58 9.50367C2.42842 8.85946 2.35263 8.16157 2.35263 7.40999C2.35263 6.65841 2.42842 5.96051 2.58 5.3163C2.70632 4.73525 2.87368 4.27104 3.08211 3.92367C3.29053 3.5763 3.49579 3.40262 3.69789 3.40262V3.40262ZM4.92947 3.40262H6.54C6.74211 3.40262 6.94737 3.5763 7.15579 3.92367C7.36421 4.27104 7.53158 4.73525 7.65789 5.3163C7.80947 5.96051 7.88526 6.65841 7.88526 7.40999C7.88526 8.16157 7.80947 8.85946 7.65789 9.50367C7.53158 10.0847 7.36421 10.5458 7.15579 10.8868C6.94737 11.2279 6.74211 11.3984 6.54 11.3984H4.92947C5.25789 10.7921 5.49474 10.1479 5.64 9.46578C5.78526 8.78367 5.83263 8.09525 5.78211 7.40051C5.83263 5.99841 5.54842 4.66578 4.92947 3.40262V3.40262ZM16.9042 8.46157C15.8305 8.46157 14.8326 8.73315 13.9105 9.2763C13.0137 9.80683 12.3063 10.5142 11.7884 11.3984C11.2453 12.3205 10.9737 13.3184 10.9737 14.3921C10.9737 15.4658 11.2453 16.4637 11.7884 17.3858C12.3063 18.27 13.0137 18.9774 13.9105 19.5079C14.8326 20.0384 15.8274 20.3068 16.8947 20.3131C17.9621 20.3195 18.9568 20.051 19.8789 19.5079C20.7758 18.9774 21.4832 18.27 22.0011 17.3858C22.5442 16.4637 22.8158 15.4658 22.8158 14.3921C22.8158 13.3184 22.5442 12.3205 22.0011 11.3984C21.4832 10.5142 20.7758 9.80683 19.8789 9.2763C18.9568 8.73315 17.9653 8.46157 16.9042 8.46157V8.46157ZM15.1232 11.4363L20.0495 14.3921L15.1232 17.3479V11.4363V11.4363Z" fill="black"/>
</g>
<defs>
<clipPath id="clip0">
<rect width="22.5" height="18.9474" fill="white" transform="translate(1.5 2.54999)"/>
</clipPath>
</defs>
</svg>
