<svg width="24" height="24" viewBox="0 0 24 24" fill="none" xmlns="http://www.w3.org/2000/svg">
<g clip-path="url(#clip0)">
<path d="M19.464 12.12V7.76399L14.532 12.048H14.424V7.76399L9.492 12.048V3.08399C9.492 2.32799 7.8 1.57199 5.568 1.57199C3.336 1.57199 1.5 2.29199 1.5 3.08399V19.5H17.7H19.464V16.2375V12.12ZM5.568 3.80399C3.948 3.80399 2.652 3.40799 2.652 2.97599C2.652 2.54399 3.948 2.14799 5.568 2.14799C7.188 2.14799 8.484 2.50799 8.484 2.97599C8.448 3.40799 7.152 3.80399 5.568 3.80399ZM14.064 16.584H12.084V14.604H14.064V16.584ZM10.572 16.584H8.592V14.604H10.572V16.584ZM15.612 16.584V14.604H17.592V16.584H15.612Z" fill="#59B4D9"/>
<path d="M5.496 2.97601H1.5V19.5H5.496V2.97601Z" fill="#3999C6"/>
<path d="M9.456 2.97601C9.456 3.76801 7.656 4.41601 5.46 4.41601C3.264 4.41601 1.5 3.76801 1.5 2.97601C1.5 2.18401 3.3 1.53601 5.496 1.53601C7.692 1.53601 9.456 2.14801 9.456 2.97601Z" fill="white"/>
<path d="M8.664 2.86801C8.664 3.40801 7.26 3.80401 5.496 3.80401C3.732 3.80401 2.328 3.40801 2.328 2.86801C2.328 2.32801 3.732 1.93201 5.496 1.93201C7.26 1.93201 8.664 2.36401 8.664 2.86801Z" fill="#7FBA00"/>
<path d="M7.98 3.44401C8.412 3.30001 8.628 3.08401 8.628 2.86801C8.628 2.32801 7.224 1.93201 5.46 1.93201C3.696 1.93201 2.292 2.36401 2.292 2.86801C2.328 3.08401 2.58 3.30001 2.976 3.44401C3.552 3.22801 4.452 3.08401 5.496 3.08401C6.504 3.08401 7.404 3.22801 7.98 3.44401Z" fill="#B8D432"/>
</g>
<g clip-path="url(#clip1)">
<path d="M18.9656 15.1355L20.5952 16.7688L20.2657 17.0984L19.2 16.0327V19.6875H18.7312V16.0327L17.6655 17.0984L17.336 16.7688L18.9656 15.1355ZM20.1375 18.2812V17.8125H22.4812V22.5H15.45V17.8125H17.7937V18.2812H15.9187V22.0312H22.0125V18.2812H20.1375Z" fill="black"/>
</g>
<defs>
<clipPath id="clip0">
<rect width="18" height="18" fill="white" transform="translate(1.5 1.5)"/>
</clipPath>
<clipPath id="clip1">
<rect width="7.5" height="7.5" fill="white" transform="translate(15.45 22.5) rotate(-90)"/>
</clipPath>
</defs>
</svg>
